<svg width="397" height="261" viewBox="0 0 397 261" fill="none" xmlns="http://www.w3.org/2000/svg">
<path d="M30.5481 82.1171L0 103.709L45 136.456L76.5588 114.847L30.5481 82.1171ZM54.1385 101.724V101.771V104.21L45.3185 110.506L36.4431 104.21V101.724L45.3738 95.4371L54.1385 101.724ZM22.9777 91.2714L31.9085 84.9843L40.6731 91.2714V93.7571L31.8531 100.053L22.9777 93.7571V91.2714ZM8.93423 103.666V101.18L17.865 94.8929L26.6296 101.18V103.666L17.8096 109.961L8.93423 103.666ZM22.3996 114.123V111.637L31.3304 105.35L40.095 111.637V114.123L31.275 120.419L22.3996 114.123ZM45.4742 130.996L36.5988 124.7V122.214L61.1792 104.93L69.9438 111.217V113.703L45.4742 130.996Z" fill="#F29227"/>
<path d="M83.5858 93.4486L75.3819 107.634L36.99 80.39L45.1939 66.2043L83.5858 93.4486ZM22.3996 111.633V114.119L31.275 120.414V117.886L22.3996 111.633ZM36.4431 101.724V104.21L45.3185 110.506V107.977L36.4431 101.724ZM8.93423 101.18V103.666L17.8096 109.961V107.433L8.93423 101.18ZM31.8531 97.5671L22.9777 91.2714V93.7571L31.8531 100.053V97.5671Z" fill="#7BD6C4"/>
<path d="M31.2715 117.89L22.3962 111.637L31.3269 105.35L40.0915 111.637L31.2715 117.89ZM45.3185 107.977L54.1385 101.724L45.3739 95.4371L36.4431 101.724L45.3185 107.977ZM17.8096 107.433L26.6296 101.18L17.865 94.8929L8.93423 101.18L17.8096 107.433ZM31.8531 97.5243L40.6731 91.2714L31.9085 84.9843L22.9777 91.2714L31.8531 97.5671V97.5243Z" fill="#72C0AB"/>
<path d="M43.9165 59L30.5515 82.1171L76.5588 114.851L90 91.4257L43.9165 59ZM75.3819 107.634L36.99 80.39L45.1938 66.2043L83.5858 93.4486L75.3819 107.634ZM40.0915 114.123L31.2715 120.419V117.89L40.0915 111.637V114.123ZM49.4135 105.097L54.135 101.724V101.771L49.4135 105.097ZM54.1385 101.776V104.214L45.3185 110.51V107.981L54.1385 101.776ZM26.6262 103.666L17.8062 109.961V107.433L26.6262 101.18V103.666ZM40.6731 91.2714V93.7571L31.8531 100.053V97.5671L40.6731 91.2714Z" fill="#569080"/>
<path d="M36.5988 122.21V124.696L45.4742 130.996V128.51L36.5988 122.21Z" fill="#F05A28"/>
<path d="M45 149L0 116.279V103.709L45 136.456V149ZM45.4742 128.467L69.9438 111.217L61.1792 104.93L36.5988 122.214L45.4742 128.51V128.467Z" fill="#FF7344"/>
<path d="M69.9404 111.217V113.703L45.4708 130.996V128.51L69.9404 111.217ZM76.5588 114.851L45 136.46V149L76.2438 127.46L90 103.996V91.4257L76.5588 114.851Z" fill="#BE1E2D"/>
<path d="M114.192 131H97.808C96.6987 131 96.144 130.403 96.144 129.208V81.208C96.144 79.928 96.6987 79.288 97.808 79.288H113.68C117.008 79.288 119.568 80.2267 121.36 82.104C123.237 83.9813 124.176 86.84 124.176 90.68V95.672C124.176 97.5493 123.877 99.2133 123.28 100.664C122.683 102.029 121.659 103.352 120.208 104.632C123.195 107.533 124.688 110.648 124.688 113.976V119.608C124.688 123.363 123.707 126.221 121.744 128.184C119.781 130.061 117.264 131 114.192 131ZM119.952 90.68C119.952 86.1573 117.861 83.896 113.68 83.896H100.496V102.584H113.68C115.643 102.584 117.179 102.029 118.288 100.92C119.397 99.8107 119.952 98.0187 119.952 95.544V90.68ZM120.208 113.976C120.208 111.757 119.739 110.051 118.8 108.856C117.861 107.661 116.155 107.064 113.68 107.064H100.496V126.392H114.192C118.203 126.392 120.208 124.131 120.208 119.608V113.976ZM156.612 131H155.844C155.247 131 154.692 130.445 154.18 129.336C151.876 130.445 149.956 131 148.42 131H143.812C140.911 131 138.649 130.061 137.028 128.184C135.407 126.307 134.596 123.747 134.596 120.504V103.864C134.596 100.621 135.407 98.0613 137.028 96.184C138.649 94.3067 140.911 93.368 143.812 93.368H156.612C157.636 93.368 158.148 93.88 158.148 94.904V129.336C158.148 130.445 157.636 131 156.612 131ZM154.692 101.048C154.692 100.707 154.607 100.195 154.436 99.512C154.265 98.9147 153.967 98.4453 153.54 98.104C153.113 97.7627 152.431 97.5067 151.492 97.336H143.812C140.057 97.336 138.18 99.512 138.18 103.864V120.376C138.18 124.813 140.057 127.032 143.812 127.032H148.292C152.473 127.032 154.564 124.941 154.564 120.76C154.564 114.957 154.564 110.733 154.564 108.088C154.649 105.443 154.692 103.651 154.692 102.712V101.048ZM179.253 131H168.757C167.904 131 167.477 130.488 167.477 129.464V128.568C167.477 127.544 167.904 127.032 168.757 127.032H179.253C181.216 127.032 182.624 126.605 183.477 125.752C184.33 124.899 184.757 123.747 184.757 122.296V120.376C184.757 118.755 184.544 117.56 184.117 116.792C183.69 115.939 182.794 115.213 181.429 114.616L173.365 111.544C170.89 110.605 169.226 109.453 168.373 108.088C167.52 106.637 167.093 104.675 167.093 102.2C167.093 96.312 169.909 93.368 175.541 93.368H185.397C185.824 93.368 186.165 93.5387 186.421 93.88C186.677 94.136 186.805 94.4773 186.805 94.904V95.8C186.805 96.824 186.336 97.336 185.397 97.336H175.541C173.664 97.336 172.384 97.7627 171.701 98.616C171.104 99.384 170.805 100.237 170.805 101.176V103.096C170.805 104.291 171.018 105.187 171.445 105.784C171.957 106.381 172.938 106.979 174.389 107.576L182.453 110.904C184.672 111.843 186.165 113.208 186.933 115C187.786 116.707 188.213 119.011 188.213 121.912C188.213 125.155 187.445 127.501 185.909 128.952C184.458 130.317 182.24 131 179.253 131ZM217.862 131H217.094C216.497 131 215.942 130.445 215.43 129.336C213.126 130.445 211.206 131 209.67 131H205.062C202.161 131 199.899 130.061 198.278 128.184C196.657 126.307 195.846 123.747 195.846 120.504V103.864C195.846 100.621 196.657 98.0613 198.278 96.184C199.899 94.3067 202.161 93.368 205.062 93.368H217.862C218.886 93.368 219.398 93.88 219.398 94.904V129.336C219.398 130.445 218.886 131 217.862 131ZM215.942 101.048C215.942 100.707 215.857 100.195 215.686 99.512C215.515 98.9147 215.217 98.4453 214.79 98.104C214.363 97.7627 213.681 97.5067 212.742 97.336H205.062C201.307 97.336 199.43 99.512 199.43 103.864V120.376C199.43 124.813 201.307 127.032 205.062 127.032H209.542C213.723 127.032 215.814 124.941 215.814 120.76C215.814 114.957 215.814 110.733 215.814 108.088C215.899 105.443 215.942 103.651 215.942 102.712V101.048ZM231.415 131H230.519C230.092 131 229.751 130.829 229.495 130.488C229.324 130.147 229.239 129.763 229.239 129.336V80.824C229.239 79.7147 229.666 79.16 230.519 79.16H231.415C232.439 79.16 232.951 79.7147 232.951 80.824V129.336C232.951 130.445 232.439 131 231.415 131Z" fill="#569080"/>
<path d="M275.008 184H273.984C272.875 184 272.32 183.403 272.32 182.208V143.04L259.904 172.096C259.477 172.864 258.795 173.248 257.856 173.248H256.704C255.765 173.248 255.125 172.864 254.784 172.096L242.368 142.784V182.208C242.368 182.635 242.24 183.061 241.984 183.488C241.728 183.829 241.301 184 240.704 184H239.68C238.485 184 237.888 183.403 237.888 182.208V134.208C237.888 132.928 238.485 132.288 239.68 132.288H241.6C242.368 132.288 242.88 132.629 243.136 133.312L257.344 166.592L271.296 133.312C271.552 132.629 272.107 132.288 272.96 132.288H275.008C275.605 132.288 276.032 132.501 276.288 132.928C276.544 133.355 276.672 133.781 276.672 134.208V182.208C276.672 182.635 276.544 183.061 276.288 183.488C276.032 183.829 275.605 184 275.008 184ZM311.291 184H290.811C289.787 184 289.275 183.403 289.275 182.208V134.208C289.275 132.928 289.787 132.288 290.811 132.288H311.291C312.4 132.288 312.955 132.885 312.955 134.08V135.104C312.955 135.701 312.742 136.171 312.315 136.512C311.974 136.768 311.632 136.896 311.291 136.896H293.371V155.328H309.627C309.968 155.328 310.31 155.499 310.651 155.84C311.078 156.096 311.291 156.565 311.291 157.248V158.144C311.291 159.339 310.736 159.936 309.627 159.936H293.371V179.392H311.291C312.4 179.392 312.955 179.989 312.955 181.184V182.208C312.955 182.805 312.742 183.275 312.315 183.616C311.974 183.872 311.632 184 311.291 184ZM347.428 136.896H337.316V182.208C337.316 182.635 337.145 183.061 336.804 183.488C336.548 183.829 336.121 184 335.524 184H334.756C334.159 184 333.732 183.829 333.476 183.488C333.22 183.061 333.092 182.635 333.092 182.208V136.896H322.852C322.425 136.896 322.041 136.768 321.7 136.512C321.359 136.256 321.188 135.787 321.188 135.104V134.08C321.188 132.885 321.743 132.288 322.852 132.288H347.428C348.537 132.288 349.092 132.885 349.092 134.08V135.104C349.092 136.299 348.537 136.896 347.428 136.896ZM360.329 128.448C360.414 128.533 360.5 128.661 360.585 128.832C360.756 129.259 360.841 129.6 360.841 129.856C360.926 130.027 360.969 130.155 360.969 130.24L360.073 147.648C359.988 148.416 359.86 148.843 359.689 148.928C359.348 148.928 359.092 148.843 358.921 148.672C358.836 148.587 358.793 148.459 358.793 148.288V147.264V130.496C358.793 130.325 358.793 130.112 358.793 129.856C358.793 129.515 358.878 129.173 359.049 128.832C359.134 128.661 359.22 128.533 359.305 128.448H360.329ZM383.753 184H373.257C372.404 184 371.977 183.488 371.977 182.464V181.568C371.977 180.544 372.404 180.032 373.257 180.032H383.753C385.716 180.032 387.124 179.605 387.977 178.752C388.83 177.899 389.257 176.747 389.257 175.296V173.376C389.257 171.755 389.044 170.56 388.617 169.792C388.19 168.939 387.294 168.213 385.929 167.616L377.865 164.544C375.39 163.605 373.726 162.453 372.873 161.088C372.02 159.637 371.593 157.675 371.593 155.2C371.593 149.312 374.409 146.368 380.041 146.368H389.897C390.324 146.368 390.665 146.539 390.921 146.88C391.177 147.136 391.305 147.477 391.305 147.904V148.8C391.305 149.824 390.836 150.336 389.897 150.336H380.041C378.164 150.336 376.884 150.763 376.201 151.616C375.604 152.384 375.305 153.237 375.305 154.176V156.096C375.305 157.291 375.518 158.187 375.945 158.784C376.457 159.381 377.438 159.979 378.889 160.576L386.953 163.904C389.172 164.843 390.665 166.208 391.433 168C392.286 169.707 392.713 172.011 392.713 174.912C392.713 178.155 391.945 180.501 390.409 181.952C388.958 183.317 386.74 184 383.753 184Z" fill="#569080"/>
</svg>
